<svg width="115" height="29" viewBox="0 0 115 29" fill="none" xmlns="http://www.w3.org/2000/svg">
<path d="M14.44 28.92C6.04 28.92 0 23 0 14.48C0 5.92 6 0 14.44 0C20.84 0 25.76 3.28 27.68 9.16L19.24 12.08C18.6 9.72 16.8 8.28 14.36 8.28C11.08 8.28 9.08 11 9.08 14.48C9.08 18 11.08 20.64 14.36 20.64C16.8 20.64 18.56 19.2 19.28 16.8L27.68 19.72C25.8 25.6 20.88 28.92 14.44 28.92Z" fill="black"/>
<path d="M42.2941 28.92C35.0141 28.92 29.9341 24.28 29.9341 17.24V0.839999H38.6941V16.52C38.6941 18.96 40.0141 20.8 42.2941 20.8C44.5741 20.8 45.8941 18.96 45.8941 16.52V0.839999H54.6941V17.24C54.6941 24.28 49.5741 28.92 42.2941 28.92Z" fill="black"/>
<path d="M58.1037 28.08V0.839999H70.2237C78.3037 0.839999 83.8238 5.92 83.8238 14.48C83.8238 23.04 78.3437 28.08 70.2237 28.08H58.1037ZM66.8638 20.36H70.1038C73.0638 20.36 74.8638 17.92 74.8638 14.48C74.8638 11 72.9838 8.56 70.0638 8.56H66.8638V20.36Z" fill="black"/>
<path d="M84.9766 28.08L95.4566 0.839999H103.697L114.137 28.08H104.537L103.457 24.48H95.0566L93.8966 28.08H84.9766ZM97.3366 17.6H101.417L99.4966 11.08L97.3366 17.6Z" fill="black"/>
</svg>
