<svg width="53" height="48" viewBox="0 0 53 48" fill="none" xmlns="http://www.w3.org/2000/svg">
<path d="M18.0059 18.0684H30.7462" stroke="#1A1A1A" stroke-width="2.58462" stroke-linecap="round"/>
<path d="M18.0059 25.5H24.3761" stroke="#1A1A1A" stroke-width="2.58462" stroke-linecap="round"/>
<path d="M28.623 25.5H34.9932" stroke="#1A1A1A" stroke-width="2.58462" stroke-linecap="round"/>
<path d="M22.2539 32.9316H34.9943" stroke="#1A1A1A" stroke-width="2.58462" stroke-linecap="round"/>
<path d="M32.8695 20.1921C34.0422 20.1921 34.9929 19.2414 34.9929 18.0687C34.9929 16.896 34.0422 15.9453 32.8695 15.9453C31.6968 15.9453 30.7461 16.896 30.7461 18.0687C30.7461 19.2414 31.6968 20.1921 32.8695 20.1921Z" stroke="#1A1A1A" stroke-width="2.58462" stroke-linecap="round"/>
<path d="M26.5004 27.6237C27.6731 27.6237 28.6237 26.6731 28.6237 25.5004C28.6237 24.3276 27.6731 23.377 26.5004 23.377C25.3276 23.377 24.377 24.3276 24.377 25.5004C24.377 26.6731 25.3276 27.6237 26.5004 27.6237Z" stroke="#1A1A1A" stroke-width="2.58462" stroke-linecap="round"/>
<path d="M20.1293 35.0554C21.302 35.0554 22.2527 34.1047 22.2527 32.932C22.2527 31.7593 21.302 30.8086 20.1293 30.8086C18.9565 30.8086 18.0059 31.7593 18.0059 32.932C18.0059 34.1047 18.9565 35.0554 20.1293 35.0554Z" stroke="#1A1A1A" stroke-width="2.58462" stroke-linecap="round"/>
</svg>
